<mxfile host="Electron" agent="Mozilla/5.0 (Windows NT 10.0; Win64; x64) AppleWebKit/537.36 (KHTML, like Gecko) draw.io/28.1.2 Chrome/138.0.7204.243 Electron/37.4.0 Safari/537.36" version="28.1.2">
  <diagram name="Страница — 1" id="_aMdoVXnkwj-suhvNriI">
    <mxGraphModel dx="3346" dy="1921" grid="1" gridSize="10" guides="1" tooltips="1" connect="1" arrows="1" fold="1" page="1" pageScale="1" pageWidth="827" pageHeight="1169" math="0" shadow="0">
      <root>
        <mxCell id="0" />
        <mxCell id="1" parent="0" />
        <mxCell id="7Y75IU_MD2MDU0oT_368-25" style="edgeStyle=orthogonalEdgeStyle;rounded=0;orthogonalLoop=1;jettySize=auto;html=1;exitX=0.5;exitY=1;exitDx=0;exitDy=0;entryX=0.5;entryY=0;entryDx=0;entryDy=0;" edge="1" parent="1" source="7Y75IU_MD2MDU0oT_368-5" target="7Y75IU_MD2MDU0oT_368-1">
          <mxGeometry relative="1" as="geometry" />
        </mxCell>
        <mxCell id="7Y75IU_MD2MDU0oT_368-26" style="edgeStyle=orthogonalEdgeStyle;rounded=0;orthogonalLoop=1;jettySize=auto;html=1;exitX=0.5;exitY=1;exitDx=0;exitDy=0;entryX=0.5;entryY=0;entryDx=0;entryDy=0;" edge="1" parent="1" source="7Y75IU_MD2MDU0oT_368-5" target="7Y75IU_MD2MDU0oT_368-3">
          <mxGeometry relative="1" as="geometry" />
        </mxCell>
        <mxCell id="7Y75IU_MD2MDU0oT_368-35" value="" style="group;fillColor=#dae8fc;strokeColor=#6c8ebf;" vertex="1" connectable="0" parent="1">
          <mxGeometry x="680" y="210" width="320" height="90" as="geometry" />
        </mxCell>
        <mxCell id="7Y75IU_MD2MDU0oT_368-5" value="&lt;p style=&quot;margin-top: 2px; margin-bottom: 20px;&quot;&gt;&lt;br&gt;&lt;/p&gt;" style="rounded=0;whiteSpace=wrap;html=1;align=center;" vertex="1" parent="7Y75IU_MD2MDU0oT_368-35">
          <mxGeometry width="320" height="90" as="geometry" />
        </mxCell>
        <mxCell id="7Y75IU_MD2MDU0oT_368-32" value="" style="group" vertex="1" connectable="0" parent="7Y75IU_MD2MDU0oT_368-35">
          <mxGeometry x="32" y="30" width="256" height="45" as="geometry" />
        </mxCell>
        <mxCell id="7Y75IU_MD2MDU0oT_368-14" value="TrueCode.Api" style="rounded=1;whiteSpace=wrap;html=1;" vertex="1" parent="7Y75IU_MD2MDU0oT_368-32">
          <mxGeometry width="256" height="45" as="geometry" />
        </mxCell>
        <mxCell id="7Y75IU_MD2MDU0oT_368-43" value="Api Gateway" style="text;html=1;align=center;verticalAlign=middle;whiteSpace=wrap;rounded=0;" vertex="1" parent="7Y75IU_MD2MDU0oT_368-35">
          <mxGeometry x="100" width="120" height="30" as="geometry" />
        </mxCell>
        <mxCell id="7Y75IU_MD2MDU0oT_368-36" value="" style="group" vertex="1" connectable="0" parent="1">
          <mxGeometry x="380" y="490" width="400" height="180" as="geometry" />
        </mxCell>
        <mxCell id="7Y75IU_MD2MDU0oT_368-1" value="" style="rounded=0;whiteSpace=wrap;html=1;" vertex="1" parent="7Y75IU_MD2MDU0oT_368-36">
          <mxGeometry width="400" height="180" as="geometry" />
        </mxCell>
        <mxCell id="7Y75IU_MD2MDU0oT_368-2" value="User Service" style="text;html=1;align=center;verticalAlign=middle;whiteSpace=wrap;rounded=0;" vertex="1" parent="7Y75IU_MD2MDU0oT_368-36">
          <mxGeometry x="140" y="7" width="120" height="30" as="geometry" />
        </mxCell>
        <mxCell id="7Y75IU_MD2MDU0oT_368-23" style="edgeStyle=orthogonalEdgeStyle;rounded=0;orthogonalLoop=1;jettySize=auto;html=1;exitX=1;exitY=0.5;exitDx=0;exitDy=0;" edge="1" parent="7Y75IU_MD2MDU0oT_368-36" source="7Y75IU_MD2MDU0oT_368-12" target="7Y75IU_MD2MDU0oT_368-17">
          <mxGeometry relative="1" as="geometry" />
        </mxCell>
        <mxCell id="7Y75IU_MD2MDU0oT_368-28" value="" style="group" vertex="1" connectable="0" parent="7Y75IU_MD2MDU0oT_368-36">
          <mxGeometry x="260" y="60" width="120" height="60" as="geometry" />
        </mxCell>
        <mxCell id="7Y75IU_MD2MDU0oT_368-17" value="UserDB" style="strokeWidth=2;html=1;shape=mxgraph.flowchart.database;whiteSpace=wrap;" vertex="1" parent="7Y75IU_MD2MDU0oT_368-28">
          <mxGeometry width="120" height="60" as="geometry" />
        </mxCell>
        <mxCell id="7Y75IU_MD2MDU0oT_368-29" value="" style="group" vertex="1" connectable="0" parent="7Y75IU_MD2MDU0oT_368-36">
          <mxGeometry x="30" y="67.5" width="160" height="45" as="geometry" />
        </mxCell>
        <mxCell id="7Y75IU_MD2MDU0oT_368-12" value="UserService.Api" style="rounded=1;whiteSpace=wrap;html=1;" vertex="1" parent="7Y75IU_MD2MDU0oT_368-29">
          <mxGeometry width="160" height="45" as="geometry" />
        </mxCell>
        <mxCell id="7Y75IU_MD2MDU0oT_368-40" value="" style="group" vertex="1" connectable="0" parent="1">
          <mxGeometry x="910" y="490" width="420" height="180" as="geometry" />
        </mxCell>
        <mxCell id="7Y75IU_MD2MDU0oT_368-3" value="" style="rounded=0;whiteSpace=wrap;html=1;" vertex="1" parent="7Y75IU_MD2MDU0oT_368-40">
          <mxGeometry width="420" height="180" as="geometry" />
        </mxCell>
        <mxCell id="7Y75IU_MD2MDU0oT_368-4" value="Currency Service" style="text;html=1;align=center;verticalAlign=middle;whiteSpace=wrap;rounded=0;" vertex="1" parent="7Y75IU_MD2MDU0oT_368-40">
          <mxGeometry x="160" y="7" width="100" height="35" as="geometry" />
        </mxCell>
        <mxCell id="7Y75IU_MD2MDU0oT_368-24" style="edgeStyle=orthogonalEdgeStyle;rounded=0;orthogonalLoop=1;jettySize=auto;html=1;exitX=1;exitY=0.5;exitDx=0;exitDy=0;" edge="1" parent="7Y75IU_MD2MDU0oT_368-40" source="7Y75IU_MD2MDU0oT_368-9" target="7Y75IU_MD2MDU0oT_368-19">
          <mxGeometry relative="1" as="geometry" />
        </mxCell>
        <mxCell id="7Y75IU_MD2MDU0oT_368-22" style="edgeStyle=orthogonalEdgeStyle;rounded=0;orthogonalLoop=1;jettySize=auto;html=1;exitX=1;exitY=0.5;exitDx=0;exitDy=0;entryX=0;entryY=0.5;entryDx=0;entryDy=0;entryPerimeter=0;" edge="1" parent="7Y75IU_MD2MDU0oT_368-40" source="7Y75IU_MD2MDU0oT_368-7" target="7Y75IU_MD2MDU0oT_368-19">
          <mxGeometry relative="1" as="geometry" />
        </mxCell>
        <mxCell id="7Y75IU_MD2MDU0oT_368-27" value="" style="group" vertex="1" connectable="0" parent="7Y75IU_MD2MDU0oT_368-40">
          <mxGeometry x="260" y="71" width="120" height="60" as="geometry" />
        </mxCell>
        <mxCell id="7Y75IU_MD2MDU0oT_368-19" value="CurrencyDB" style="strokeWidth=2;html=1;shape=mxgraph.flowchart.database;whiteSpace=wrap;" vertex="1" parent="7Y75IU_MD2MDU0oT_368-27">
          <mxGeometry width="120" height="60" as="geometry" />
        </mxCell>
        <mxCell id="7Y75IU_MD2MDU0oT_368-30" value="" style="group" vertex="1" connectable="0" parent="7Y75IU_MD2MDU0oT_368-40">
          <mxGeometry x="30" y="49.5" width="160" height="45" as="geometry" />
        </mxCell>
        <mxCell id="7Y75IU_MD2MDU0oT_368-7" value="CurrencyService.Api" style="rounded=1;whiteSpace=wrap;html=1;" vertex="1" parent="7Y75IU_MD2MDU0oT_368-30">
          <mxGeometry width="160" height="45" as="geometry" />
        </mxCell>
        <mxCell id="7Y75IU_MD2MDU0oT_368-31" value="" style="group" vertex="1" connectable="0" parent="7Y75IU_MD2MDU0oT_368-40">
          <mxGeometry x="32" y="111" width="158" height="45" as="geometry" />
        </mxCell>
        <mxCell id="7Y75IU_MD2MDU0oT_368-9" value="CurrencyService.Processor" style="rounded=1;whiteSpace=wrap;html=1;" vertex="1" parent="7Y75IU_MD2MDU0oT_368-31">
          <mxGeometry x="-10" width="168" height="45" as="geometry" />
        </mxCell>
      </root>
    </mxGraphModel>
  </diagram>
</mxfile>
